<svg width="22" height="22" viewBox="0 0 22 22" fill="none" xmlns="http://www.w3.org/2000/svg">
<path opacity="0.3" fill-rule="evenodd" clip-rule="evenodd" d="M0 10.7393C0 7.89103 1.13145 5.15946 3.14546 3.14546C5.15946 1.13145 7.89103 0 10.7393 0C13.5875 0 16.3191 1.13145 18.3331 3.14546C20.3471 5.15946 21.4785 7.89103 21.4785 10.7393C21.4785 13.5875 20.3471 16.3191 18.3331 18.3331C16.3191 20.3471 13.5875 21.4785 10.7393 21.4785C7.89103 21.4785 5.15946 20.3471 3.14546 18.3331C1.13145 16.3191 0 13.5875 0 10.7393ZM10.1264 15.3357L16.3094 7.60626L15.1925 6.71276L9.92022 13.3009L6.18582 10.1894L5.2694 11.2891L10.1264 15.3357Z" fill="#29BF12"/>
</svg>
