<svg width="22" height="18" viewBox="0 0 22 18" fill="none" xmlns="http://www.w3.org/2000/svg">
<path d="M2.79243 0.690674C2.23158 0.690674 1.6937 0.913472 1.29712 1.31005C0.900532 1.70664 0.677734 2.24452 0.677734 2.80537V7.03477C1.23859 7.03477 1.77647 7.25757 2.17305 7.65415C2.56964 8.05074 2.79243 8.58862 2.79243 9.14947C2.79243 9.71033 2.56964 10.2482 2.17305 10.6448C1.77647 11.0414 1.23859 11.2642 0.677734 11.2642V15.4936C0.677734 16.0544 0.900532 16.5923 1.29712 16.9889C1.6937 17.3855 2.23158 17.6083 2.79243 17.6083H19.71C20.2709 17.6083 20.8088 17.3855 21.2054 16.9889C21.6019 16.5923 21.8247 16.0544 21.8247 15.4936V11.2642C21.2639 11.2642 20.726 11.0414 20.3294 10.6448C19.9328 10.2482 19.71 9.71033 19.71 9.14947C19.71 8.58862 19.9328 8.05074 20.3294 7.65415C20.726 7.25757 21.2639 7.03477 21.8247 7.03477V2.80537C21.8247 2.24452 21.6019 1.70664 21.2054 1.31005C20.8088 0.913472 20.2709 0.690674 19.71 0.690674H2.79243ZM14.952 3.86272L16.538 5.44875L7.55051 14.4362L5.96448 12.8502L14.952 3.86272ZM7.87829 3.90502C8.91449 3.90502 9.7498 4.74032 9.7498 5.77653C9.7498 6.27288 9.55262 6.74891 9.20164 7.09988C8.85067 7.45086 8.37464 7.64804 7.87829 7.64804C6.84208 7.64804 6.00678 6.81273 6.00678 5.77653C6.00678 5.28017 6.20395 4.80415 6.55493 4.45317C6.90591 4.10219 7.38193 3.90502 7.87829 3.90502ZM14.6242 10.6509C15.6604 10.6509 16.4957 11.4862 16.4957 12.5224C16.4957 13.0188 16.2985 13.4948 15.9475 13.8458C15.5966 14.1968 15.1205 14.3939 14.6242 14.3939C13.588 14.3939 12.7527 13.5586 12.7527 12.5224C12.7527 12.0261 12.9498 11.55 13.3008 11.1991C13.6518 10.8481 14.1278 10.6509 14.6242 10.6509Z" fill="#F1EAE4"/>
</svg>
